<?xml version="1.0" encoding="UTF-8" standalone="no"?>
<!-- Created with Inkscape (http://www.inkscape.org/) -->

<svg
   version="1.1"
   id="svg849"
   width="511.33707"
   height="511.14618"
   viewBox="0 0 511.33707 511.14618"
   xmlns="http://www.w3.org/2000/svg"
   xmlns:svg="http://www.w3.org/2000/svg">
  <defs
     id="defs853" />
  <g
     id="g855"
     transform="translate(-191.32759,-96.98557)">
    <path
       style="fill:#386890;fill-opacity:1"
       d="m 235.55185,607.49588 c -19.78363,-2.93472 -35.15157,-15.82554 -41.65196,-34.93818 l -2.23524,-6.57213 -0.27704,-209.5 c -0.18691,-141.34482 0.0614,-211.77726 0.76338,-216.5 2.75118,-18.5102 16.2357,-34.26585 34.82322,-40.688289 l 6.69044,-2.311711 h 213 213 l 7.12004,2.239308 c 16.29461,5.124782 28.49713,17.359622 33.67152,33.760692 l 2.20844,7 v 212.5 212.5 l -2.23931,7.12004 c -5.08501,16.16816 -17.37367,28.3764 -34.26069,34.0365 -5.26955,1.76622 -14.2989,1.84909 -215.5,1.97783 -115.5,0.0739 -212.30076,-0.20692 -215.1128,-0.62406 z m 20.6128,-169.8825 v -6.87219 l -4.10497,-0.65642 c -5.51795,-0.88235 -8.98756,-2.80162 -12.69203,-7.02078 -4.39274,-5.00306 -5.18705,-9.04099 -5.2283,-26.57842 -0.0629,-26.75812 -2.92762,-38.79013 -10.05768,-42.24333 l -3.3721,-1.63315 2.59622,-0.98708 c 1.42792,-0.54289 3.55626,-2.20757 4.72964,-3.69929 4.19633,-5.33477 5.26598,-11.6618 5.991,-35.43715 0.58371,-19.14139 0.96902,-23.07712 2.58126,-26.36622 2.39721,-4.89048 8.16528,-9.10044 14.57543,-10.63821 l 4.98153,-1.19505 v -6.83739 -6.83739 l -3.75,0.5151 c -14.93177,2.05105 -24.38944,7.83439 -29.37589,17.96331 l -3.30598,6.71541 -0.77995,23.96807 c -0.42897,13.18243 -1.2299,25.63907 -1.77984,27.68141 -1.33868,4.97148 -4.00678,7.16374 -9.46776,7.77928 l -4.54058,0.51178 v 6.78205 6.78205 l 4.0347,0.68166 c 5.80337,0.98048 9.71523,4.63368 10.47979,9.78687 0.34332,2.314 0.95549,14.55727 1.36038,27.20727 0.82358,25.73119 1.46364,28.4414 8.57603,36.31397 5.31848,5.88692 16.78855,10.82233 25.7991,11.10098 2.74148,0.0848 2.75,0.0638 2.75,-6.78714 z m 392.3204,5.37695 c 12.15385,-3.16567 19.97725,-9.5179 23.80744,-19.33051 1.99125,-5.10142 2.27847,-8.1476 2.84511,-30.17425 0.77503,-30.12734 1.27479,-31.60811 11.27705,-33.41369 l 3.75,-0.67694 v -6.95468 c 0,-6.63394 -0.10842,-6.95469 -2.35078,-6.95469 -1.29292,0 -3.81633,-0.5109 -5.60757,-1.13532 -5.59679,-1.95106 -6.30493,-5.18385 -7.08941,-32.36468 -0.38097,-13.2 -1.14107,-25.36281 -1.68912,-27.02847 -4.67689,-14.21437 -14.58111,-21.47964 -32.51312,-23.85007 l -3.75,-0.49572 v 6.77318 6.77318 l 6.23915,1.73464 c 4.86993,1.35396 7.15184,2.68718 10.39809,6.07515 5.45936,5.6977 6.36276,10.15363 6.36276,31.38367 0,24.81308 2.41655,34.45797 9.47713,37.82492 l 3.4016,1.62211 -3.15535,1.59371 c -7.20139,3.63728 -9.6862,13.05523 -9.70776,36.79448 -0.017,18.6701 -0.97948,25.43454 -4.34168,30.51267 -2.47403,3.73665 -11.58537,8.78655 -15.85325,8.78655 h -2.82069 v 7 c 0,6.99397 0.002,7 2.7899,7 1.53445,0 5.37317,-0.67286 8.5305,-1.49524 z m -286.28936,-81.00476 19.60994,-56 -8.49135,-0.29142 c -4.67024,-0.16029 -8.98998,-0.10009 -9.59942,0.13378 -0.60944,0.23386 -8.28595,22.28911 -17.05891,49.01165 -8.77297,26.72254 -16.24121,48.26234 -16.5961,47.86622 -0.35489,-0.39613 -7.73273,-22.09523 -16.3952,-48.22023 -8.66247,-26.125 -16.07155,-47.85534 -16.46462,-48.28965 -0.39307,-0.4343 -4.79639,-0.6593 -9.78515,-0.5 l -9.07047,0.28965 19.40613,55 c 10.67337,30.25 19.62415,55.57642 19.89061,56.28094 0.36565,0.96676 3.48408,1.21203 12.71453,1 l 12.23006,-0.28094 z m 116.11299,2 c 10.4054,-29.7 19.18294,-55.03009 19.50566,-56.28909 0.58387,-2.27787 0.54122,-2.28767 -8.70441,-2 l -9.29115,0.28909 -16.06933,48.25 c -8.83814,26.5375 -16.31399,48.25 -16.61302,48.25 -0.29902,0 -7.8993,-21.825 -16.8895,-48.5 l -16.34582,-48.5 h -9.36823 c -5.15253,0 -9.36823,0.15631 -9.36823,0.34736 0,0.546 37.9132,107.88236 39.00716,110.43348 0.95147,2.21881 1.30766,2.2732 13.09801,2 l 12.11996,-0.28084 z m 98.63331,51.75 c 9.6373,-27.23843 38.22266,-109.26732 38.22266,-109.68422 0,-0.31118 -4.16594,-0.56578 -9.25765,-0.56578 h -9.25765 l -16.39836,49.22959 -16.39835,49.2296 -16.46503,-49.2296 -16.46504,-49.22959 h -9.45228 c -7.52099,0 -9.38623,0.28163 -9.12896,1.37836 0.17782,0.75809 9.09832,26.18251 19.82332,56.49871 l 19.5,55.12036 12.15217,10e-4 12.15218,0.001 0.97299,-2.75 z"
       id="path2029" />
  </g>
</svg>
